<svg xmlns="http://www.w3.org/2000/svg" xmlns:xlink="http://www.w3.org/1999/xlink" viewBox="0 0 373.88 81.08"><defs><style>.cls-1{fill:none;}.cls-2{fill:#183762;}.cls-3{fill:#b7842c;}.cls-4{fill:#7ca6d8;opacity:0.8;}.cls-5{clip-path:url(#clip-path);}.cls-6{fill:#0354a3;opacity:0.36;}</style><clipPath id="clip-path" transform="translate(23.89 20.72)"><path class="cls-1" d="M0,46.05S45.83,47.81,46.27,0C31.88,16.38,18,17.58,18,17.58S20.44,35.06,0,46.05Z"/></clipPath></defs><title>logo_v2-2</title><g id="Layer_2" data-name="Layer 2"><g id="Layer_2_1" data-name="Layer 2 1"><path class="cls-2" d="M66.12,43.81V17.42H79.34V20H68.72v8.45H70a21.61,21.61,0,0,1,7.16.86,7.43,7.43,0,0,1,3.52,2.75,7.37,7.37,0,0,1-1,9.46,8.44,8.44,0,0,1-6.29,2.28Zm2.6-12.7V41.22H72a11.65,11.65,0,0,0,4.23-.56,4.76,4.76,0,0,0,2.14-1.74A4.77,4.77,0,0,0,78,33.19a5.32,5.32,0,0,0-2.81-1.68,23.19,23.19,0,0,0-5-.4Z" transform="translate(23.89 20.72)"/><path class="cls-2" d="M84.67,24.29h2.65l6.71,15,6.51-15h2.67L91.57,50.94H88.92l3.75-8.61Z" transform="translate(23.89 20.72)"/><path class="cls-2" d="M127.65,24.29h.72L135,43.81h-2.61l-4.84-14.36L120,43.81h-.46L112,29.43l-4.82,14.38H104.6l6.67-19.52H112l7.86,15.27Z" transform="translate(23.89 20.72)"/><path class="cls-2" d="M158.18,24.29V43.81H155.7V40.45a10.78,10.78,0,0,1-3.54,2.89,9.88,9.88,0,0,1-11.37-2,10.07,10.07,0,0,1-2.93-7.3,9.89,9.89,0,0,1,3-7.21,9.63,9.63,0,0,1,7.12-3,9.24,9.24,0,0,1,4.35,1,10,10,0,0,1,3.41,3.07V24.29Zm-10,1.92a7.61,7.61,0,0,0-3.86,1,7.52,7.52,0,0,0-2.83,2.9,8,8,0,0,0,0,7.88A7.76,7.76,0,0,0,144.3,41a7.41,7.41,0,0,0,3.83,1,7.86,7.86,0,0,0,3.9-1,7.27,7.27,0,0,0,2.84-2.82,8,8,0,0,0,1-4,7.79,7.79,0,0,0-2.23-5.66A7.39,7.39,0,0,0,148.14,26.21Z" transform="translate(23.89 20.72)"/><path class="cls-2" d="M173.84,24.29h2.54v8.64l9.33-8.64h3.07L179.55,33l9.93,10.81h-3.21l-8.45-9.44-1.44,1.2v8.24h-2.54V35.57l-1.4-1.2-8.39,9.44h-3.24L170.61,33l-9.06-8.69h3.06l9.23,8.62Z" transform="translate(23.89 20.72)"/><path class="cls-2" d="M205.94,34.41H194.59v9.4h-2.51V24.29h2.51V32h11.35V24.29h2.51V43.81h-2.51Z" transform="translate(23.89 20.72)"/><path class="cls-2" d="M216.54,32h2.39a17.45,17.45,0,0,1,4.47.45,5.2,5.2,0,0,1,2.78,2,5.87,5.87,0,0,1-.52,7.64,6.85,6.85,0,0,1-5.11,1.72h-6.5V24.29h2.49Zm.09,2.3v7.37h2.89c3.41,0,5.11-1.19,5.11-3.59a4.17,4.17,0,0,0-.55-2,3.05,3.05,0,0,0-1.6-1.38,12.05,12.05,0,0,0-3.71-.39Zm14.18-10h2.51V43.81h-2.51Z" transform="translate(23.89 20.72)"/><path class="cls-2" d="M241.2,24.29V38.73l14.33-14.44h.19V43.81h-2.51V29.5L239,43.81h-.3V24.29Zm-.36-7.83h2.37a3.83,3.83,0,0,0,1.63,1.4,5.84,5.84,0,0,0,2.44.46,5.56,5.56,0,0,0,2.31-.41,4.71,4.71,0,0,0,1.67-1.45h2.29a4.54,4.54,0,0,1-2,2.7,7.6,7.6,0,0,1-4.28,1.08,7.85,7.85,0,0,1-4.3-1.07A4.61,4.61,0,0,1,240.84,16.46Z" transform="translate(23.89 20.72)"/><path class="cls-3" d="M262.79,36.94a5.72,5.72,0,0,0,4.67,2.78,4.09,4.09,0,0,0,2.88-1,3.45,3.45,0,0,0,1.1-2.67,3.7,3.7,0,0,0-1.07-2.71c-.71-.71-2.19-1.07-4.42-1.07h-1.08V27.77H266a4.43,4.43,0,0,0,3-.91,3.12,3.12,0,0,0,1-2.46,3,3,0,0,0-.86-2.24,3.19,3.19,0,0,0-2.29-.83A5.21,5.21,0,0,0,263.38,23l-3-3.3a10.79,10.79,0,0,1,4-2.57,11.57,11.57,0,0,1,2.94-.42,8.11,8.11,0,0,1,5.44,1.88,6.37,6.37,0,0,1,2.2,5.08,8,8,0,0,1-.5,2.76,6.67,6.67,0,0,1-2.75,2.85,7.17,7.17,0,0,1,4.63,7,7.61,7.61,0,0,1-2.47,5.91,9.1,9.1,0,0,1-6.35,2.23,10.42,10.42,0,0,1-4.38-.89A12.39,12.39,0,0,1,259,39.75Z" transform="translate(23.89 20.72)"/><path class="cls-3" d="M292.55,36.6l6-12.31h3.23l4.89,19.52h-4.79l-2.61-11.45-5.81,11.45h-2l-5.68-11.46-2.63,11.46h-4.77l4.88-19.52h3.23Z" transform="translate(23.89 20.72)"/><path class="cls-3" d="M328.93,35.47H313.21A5.21,5.21,0,0,0,315,38.78,5.74,5.74,0,0,0,318.8,40a6.54,6.54,0,0,0,4.72-1.92L327.64,40A9.77,9.77,0,0,1,324,43.26a11.56,11.56,0,0,1-5.11,1.05,10.1,10.1,0,0,1-7.48-2.9,9.84,9.84,0,0,1-2.89-7.25,10.2,10.2,0,0,1,2.88-7.42,9.69,9.69,0,0,1,7.22-2.95,10,10,0,0,1,7.49,2.95A10.66,10.66,0,0,1,329,34.53ZM324,31.61A4.9,4.9,0,0,0,322.12,29a5.54,5.54,0,0,0-3.31-1,5.88,5.88,0,0,0-3.59,1.15,6.36,6.36,0,0,0-1.8,2.53Z" transform="translate(23.89 20.72)"/><path class="cls-3" d="M335.48,43.81h-2.6V24.29h4.77V35.75l10-11.46H350V43.81h-4.77V32.58Zm-1.22-28.12h4a2.92,2.92,0,0,0,1.3,1.1,5.16,5.16,0,0,0,2,.37,5.62,5.62,0,0,0,2.21-.43,2.77,2.77,0,0,0,1.13-1h4a5.41,5.41,0,0,1-2.18,3.65,8.42,8.42,0,0,1-5.14,1.38,9.85,9.85,0,0,1-3.72-.61,6,6,0,0,1-2.41-1.77A5.61,5.61,0,0,1,334.26,15.69Z" transform="translate(23.89 20.72)"/><path class="cls-4" d="M11.23,50.33s38.93,1.49,39.3-39.11c-12.22,13.91-24,14.93-24,14.93S28.6,41,11.23,50.33Z" transform="translate(23.89 20.72)"/><g class="cls-5"><path class="cls-6" d="M-7.06,47.59S44.26,36,46.22-1.5s23.1,27.11,23.1,27.11L27.59,60.35l-28.69-4Z" transform="translate(23.89 20.72)"/><path class="cls-6" d="M-11,45.73S40.35,34.09,42.3-3.36,65.4,23.75,65.4,23.75L23.68,58.49-5,54.48Z" transform="translate(23.89 20.72)"/><path class="cls-6" d="M-15.82,42.93S35.5,31.29,37.46-6.15,60.56,21,60.56,21L18.83,55.7l-28.69-4Z" transform="translate(23.89 20.72)"/><path class="cls-6" d="M-21.5,41.44S29.82,29.8,31.78-7.64s23.1,27.1,23.1,27.1L13.15,54.21l-28.69-4Z" transform="translate(23.89 20.72)"/><path class="cls-6" d="M-23.89,40.05S27.43,28.4,29.39-9s23.1,27.1,23.1,27.1L10.76,52.81l-28.69-4Z" transform="translate(23.89 20.72)"/></g></g></g></svg>